# xmcd
#
# Track frame offsets:
#	150
#	16144
#	37890
#	48916
#	62770
#	79168
#	94401
#	108355
#	125332
#	137786
#	150665
#	171477
#	182210
#	200660
#	217946
#	232513
#	246206
#	256929
#	270879
#	287847
#
# Disc length: 4220
#
# Revision: 1
# Processed by: cddbd v1.5.1PL0 Copyright (c) Steve Scherf et al.
# Submitted via: CDex 1.51
# Normalized: r0:TDELIM( - )
#
DISCID=0f107a14
DTITLE=Various Artist - Blues Bag Volume 6
DYEAR=2004
DGENRE=Blues
TTITLE0=Lord's Gonna Fix It - Lynn August
TTITLE1=Every Time I Hear Her Name - Papa John Creach
TTITLE2=I Can't Believe You Wanna Leave - Johnny Winter
TTITLE3=Le Femme Du Doight - Quenn Ida
TTITLE4=No More Country Girls - Papa John Creach
TTITLE5=Zydeco Rock - Lynn August
TTITLE6=Mamma Cat Cuttin' No Slack - Katie Webster
TTITLE7=Born In Louisiana - Gatemouth Brown
TTITLE8=Capitane Gumbo - Queen Ida
TTITLE9=Don't Tell It To No One - Papa John Creach
TTITLE10=City Woman - Lynn August
TTITLE11=Jambalaya - Fats Domino
TTITLE12=Everybody Wants My Good Thing - Papa John Creach
TTITLE13=C'est La Vie - Queen Ida
TTITLE14=Whatever Boils Your Catfish - Lynn August
TTITLE15=I'm On My Way - Zydeco Force
TTITLE16=My Toot Toot - Rockin' Sydney
TTITLE17=La Louisiana - Queen Ida
TTITLE18=Marked Deck - Lynn August
TTITLE19=Zydeco Blues and California Shoes - Katie Webster
EXTD=YEAR: 2004
EXTT0=
EXTT1=
EXTT2=
EXTT3=
EXTT4=
EXTT5=
EXTT6=
EXTT7=
EXTT8=
EXTT9=
EXTT10=
EXTT11=
EXTT12=
EXTT13=
EXTT14=
EXTT15=
EXTT16=
EXTT17=
EXTT18=
EXTT19=
PLAYORDER=
